
<svg xmlns="http://www.w3.org/2000/svg" version="1.1" xmlns:xlink="http://www.w3.org/1999/xlink" preserveAspectRatio="none" x="0px" y="0px" width="750px" height="1624px" viewBox="0 0 750 1624">
<defs>
<filter id="Filter_1" x="-20%" y="-20%" width="140%" height="140%" color-interpolation-filters="sRGB">
<feColorMatrix in="SourceGraphic" type="matrix" values="1 0 0 0 0 0 1 0 0 0 0 0 1 0 0 0 0 0 0 0" result="result1"/>
</filter>

<g id="Tween_1_0_Layer0_0_FILL">
<path fill="#FFFFFF" stroke="none" d="
M -104 69.15
L -115.65 69.15 -115.65 117.55 -54.75 117.55 -54.75 105.8 -104 105.8 -104 69.15
M -54.75 -105.75
L -54.75 -117.55 -115.65 -117.55 -115.65 -69.15 -104 -69.15 -104 -105.75 -54.75 -105.75
M 115.7 69.15
L 103.5 69.15 103.5 105.8 54.8 105.8 54.8 117.55 115.7 117.55 115.7 69.15
M 54.8 -117.55
L 54.8 -105.75 103.5 -105.75 103.5 -69.15 115.7 -69.15 115.7 -117.55 54.8 -117.55 Z"/>
</g>

<g id="line_0_Layer0_0_FILL">
<path fill="#FFFFFF" stroke="none" d="
M 233.1 24.35
L 233.1 17.6 22.05 17.6 22.05 24.35 233.1 24.35 Z"/>
</g>

<g id="Mask_Mask_Tween_3_0_Layer0_0_FILL">
<path fill="#FFFFFF" stroke="none" d="
M 39.75 39.75
L 39.75 213.85 213.85 213.85 213.85 39.75 39.75 39.75 Z"/>
</g>

<g id="Tween_4_0_Layer0_0_FILL">
<path fill="#FFFFFF" stroke="none" d="
M 9.45 19.65
L 0.1 19.65 0.1 29 9.45 29 9.45 19.65
M 2.45 22
L 7.1 22 7.1 26.65 2.45 26.65 2.45 22
M 5.95 23.15
L 3.6 23.15 3.6 25.5 5.95 25.5 5.95 23.15
M 9.45 10.3
L 9.45 1 0.1 1 0.1 10.3 9.45 10.3
M 2.45 8
L 2.45 3.3 7.1 3.3 7.1 8 2.45 8
M 5.95 4.5
L 3.6 4.5 3.6 6.8 5.95 6.8 5.95 4.5
M 14.1 4.1
L 11 4.1 11 10.3 17.2 10.3 17.2 7.2 14.1 7.2 14.1 4.1
M 17.2 4.1
L 17.2 1 14.1 1 14.1 4.1 17.2 4.1
M 28.1 10.3
L 28.1 1 18.75 1 18.75 10.3 28.1 10.3
M 21.1 3.3
L 25.75 3.3 25.75 8 21.1 8 21.1 3.3
M 24.6 4.5
L 22.25 4.5 22.25 6.8 24.6 6.8 24.6 4.5
M 15.65 25.9
L 15.65 29 18.75 29 18.75 25.9 15.65 25.9
M 18.75 21.2
L 18.75 24.3 21.85 24.3 21.85 29 28.1 29 28.1 25.9 25 25.9 25 21.2 18.75 21.2
M 15.65 18.1
L 12.55 18.1 12.55 25.9 15.65 25.9 15.65 18.1
M 6.3 15
L 9.45 15 9.45 18.1 12.55 18.1 12.55 15 15.65 15 15.65 11.9 6.3 11.9 6.3 15
M 6.3 18.1
L 6.3 15 3.2 15 3.2 18.1 6.3 18.1
M 3.2 11.9
L 0.1 11.9 0.1 15 3.2 15 3.2 11.9
M 21.85 18.1
L 21.85 15 15.65 15 15.65 18.1 21.85 18.1
M 28.1 15
L 25 15 25 21.2 28.1 21.2 28.1 15
M 25 11.9
L 21.85 11.9 21.85 15 25 15 25 11.9 Z"/>
</g>
</defs>

<g transform="matrix( 0.222015380859375, 0, 0, 0.222015380859375, 347.7,1429.8) ">
<g transform="matrix( 1.236236572265625, 0, 0, 1.2360992431640625, 126.85,126.15) ">
<g transform="matrix( 1, 0, 0, 1, 0,0) ">
<use xlink:href="#Tween_1_0_Layer0_0_FILL"/>
</g>
</g>

<g transform="matrix( 1, 0, 0, 1, 22.05,222.05) ">
<g transform="matrix( 1, 0, 0, 1, -22.05,-17.6) ">
<use filter="url(#Filter_1)" xlink:href="#line_0_Layer0_0_FILL"/>
</g>
</g>

<mask id="Mask_Mask_1">
<g transform="matrix( 1, 0, 0, 1, 126.8,126.8) ">
<g transform="matrix( 1, 0, 0, 1, -126.8,-126.8) ">
<use xlink:href="#Mask_Mask_Tween_3_0_Layer0_0_FILL"/>
</g>
</g>
</mask>

<g mask="url(#Mask_Mask_1)">
<g transform="matrix( 1, 0, 0, 1, 52.15,54.35) ">
<g transform="matrix( 1, 0, 0, 1, 76.35,76.35) ">
<g transform="matrix( 5.455078125, 0, 0, 5.455078125, -76.9,-81.8) ">
<use filter="url(#Filter_1)" xlink:href="#Tween_4_0_Layer0_0_FILL"/>
</g>
</g>
</g>
</g>
</g>
</svg>
